<?xml version="1.0" encoding="UTF-8"?>
<svg version="1.1" xmlns="http://www.w3.org/2000/svg" width="109" height="165">
<path d="M0 0 C2.0625 0.4375 2.0625 0.4375 4 1 C4.93423645 4.01031744 5.04449911 4.86650268 4 8 C4.66 8 5.32 8 6 8 C7.82064665 10.6598868 9.41596707 13.42577777 11.05078125 16.203125 C13.07515574 19.1078387 15.14445852 20.93575315 18 23 C22.19352973 16.54964702 25.17536822 11.89157005 25 4 C25.33 3.34 25.66 2.68 26 2 C27.32 2 28.64 2 30 2 C30.38218767 3.65614657 30.71395102 5.32457024 31 7 C30.67 7.33 30.34 7.66 30 8 C29.91273777 9.78071246 29.89300959 11.5648314 29.90234375 13.34765625 C29.90556641 14.42724609 29.90878906 15.50683594 29.91210938 16.61914062 C29.92048828 17.75544922 29.92886719 18.89175781 29.9375 20.0625 C29.94201172 21.20267578 29.94652344 22.34285156 29.95117188 23.51757812 C29.96300253 26.34510351 29.9794859 29.1725264 30 32 C31.22074219 32.25394531 32.44148438 32.50789063 33.69921875 32.76953125 C39.94574504 34.33976401 44.85259258 38.4606249 48.19921875 43.9765625 C49 45.8125 49 45.8125 50 49 C50.33 49.99 50.66 50.98 51 52 C50.95988587 55.68685324 50.87727315 59.36239507 50.69726562 63.04492188 C50.57871423 68.30948205 51.44517581 71.7488708 54.14379883 76.29052734 C55 78 55 78 54.875 80.9375 C54 83 54 83 52 84 C51.09656316 85.88263881 51.09656316 85.88263881 50.375 88.0625 C50.11460938 88.79597656 49.85421875 89.52945313 49.5859375 90.28515625 C49.39257812 90.85105469 49.19921875 91.41695313 49 92 C48.34 92 47.68 92 47 92 C47.061875 92.763125 47.12375 93.52625 47.1875 94.3125 C47 97 47 97 45.7800293 98.6496582 C43.48338956 100.39190404 42.19214969 100.34762069 39.33203125 100.29296875 C38.43935547 100.28330078 37.54667969 100.27363281 36.62695312 100.26367188 C35.69818359 100.23853516 34.76941406 100.21339844 33.8125 100.1875 C32.87212891 100.17396484 31.93175781 100.16042969 30.96289062 100.14648438 C28.64134962 100.11113096 26.32096347 100.06178674 24 100 C24 100.66 24 101.32 24 102 C22.66666667 103.33333333 21.33333333 104.66666667 20 106 C17.1296899 110.71915754 17.03077813 115.65078312 18 121 C22.25091617 128.38703876 29.40136473 132.88967713 37.39453125 135.33984375 C46.89984763 137.74823725 56.22892161 138.28785501 66 138 C66 141.63 66 145.26 66 149 C62.77717912 149.80570522 60.65946471 150.11156545 57.4375 150.0625 C56.67308594 150.05347656 55.90867187 150.04445312 55.12109375 150.03515625 C54.07115234 150.01775391 54.07115234 150.01775391 53 150 C52.01 150 51.02 150 50 150 C46.70273845 149.14515441 43.5335438 148.2159582 40.375 146.9375 C38.0476009 145.91923356 38.0476009 145.91923356 35.625 145.625 C32.57513144 144.89884082 30.38192441 143.59319849 27.71484375 141.98828125 C25.56122751 140.74713112 23.33291001 139.84833091 21 139 C29.35548368 147.11675557 41.36697693 152 53 152 C57.58489326 152 61.58570242 152.85555248 66 154 C66 156.31 66 158.62 66 161 C43.71875352 163.17133586 22.46515817 160.1180865 3.984375 146.83203125 C-4.73215089 139.45952058 -9.60001024 131.34474464 -11 120 C-11.94875 119.731875 -12.8975 119.46375 -13.875 119.1875 C-17 118 -17 118 -19 115 C-19.70812814 112.67891331 -20.38024152 110.34622853 -21 108 C-20.67 107.67 -20.34 107.34 -20 107 C-19.97909803 105.18750079 -20.00941418 103.3743422 -20.0625 101.5625 C-20.1246226 95.79890296 -19.38293485 90.58112992 -18 85 C-23.24800718 94.06473967 -24.27534406 104.36222884 -21.8125 114.4375 C-20.46870614 119.06040806 -18.57793215 123.01698458 -16.0859375 127.125 C-15 129 -15 129 -14 132 C-13.34 132 -12.68 132 -12 132 C-12 132.66 -12 133.32 -12 134 C-11.34 134.33 -10.68 134.66 -10 135 C-12.52273893 135.92790397 -13.73724844 136.08450301 -16.33203125 135.25 C-24.99320717 130.88531292 -30.71290664 125.73907494 -35 117 C-37.53238481 108.84572093 -36.44069223 99.70664275 -33 92 C-31.24006798 89.11371149 -29.39930574 86.39262243 -27 84 C-26.34 84 -25.68 84 -25 84 C-24.505 82.515 -24.505 82.515 -24 81 C-23.01 80.01 -23.01 80.01 -22 79 C-20.98758315 77.67607028 -19.98560611 76.34400833 -19 75 C-19.55429687 75.433125 -20.10859375 75.86625 -20.6796875 76.3125 C-21.40414063 76.869375 -22.12859375 77.42625 -22.875 78 C-23.59429688 78.556875 -24.31359375 79.11375 -25.0546875 79.6875 C-27 81 -27 81 -29 81 C-29 81.66 -29 82.32 -29 83 C-29.66 83 -30.32 83 -31 83 C-31.268125 83.55171875 -31.53625 84.1034375 -31.8125 84.671875 C-33.12796584 87.25088039 -34.53849162 89.75082068 -36 92.25 C-36.515625 93.14203125 -37.03125 94.0340625 -37.5625 94.953125 C-38.036875 95.62859375 -38.51125 96.3040625 -39 97 C-39.66 97 -40.32 97 -41 97 C-40.96516247 87.01904749 -38.7943298 79.52323219 -32.17578125 71.8984375 C-24.20043524 64.29516645 -13.20538313 61.24846149 -2.375 60.875 C-1.59125 60.91625 -0.8075 60.9575 0 61 C-0.7734375 59.948125 -0.7734375 59.948125 -1.5625 58.875 C-3.35327927 55.29344145 -3.10873962 53.80139297 -2 50 C-0.4375 47.125 -0.4375 47.125 1 45 C0.26394531 44.60941406 -0.47210938 44.21882813 -1.23046875 43.81640625 C-4.26358328 41.82712803 -6.08424505 39.78681283 -8.3125 36.9375 C-9.35857422 35.62072266 -9.35857422 35.62072266 -10.42578125 34.27734375 C-12 32 -12 32 -12 30 C-12.99 29.67 -13.98 29.34 -15 29 C-15.33 28.34 -15.66 27.68 -16 27 C-16.825 26.690625 -17.65 26.38125 -18.5 26.0625 C-19.7375 25.5365625 -19.7375 25.5365625 -21 25 C-21.33 24.01 -21.66 23.02 -22 22 C-21.01 21.01 -20.02 20.02 -19 19 C-16.59392748 20.03117394 -15.05094319 20.94541802 -13.25 22.875 C-9.0815028 26.81191402 -4.73980995 29 1 29 C1 21.74 1 14.48 1 7 C0.01 6.67 -0.98 6.34 -2 6 C-1.125 1.125 -1.125 1.125 0 0 Z M21 35 C25 36 25 36 25 36 Z M14.5 37.375 C13.7059375 37.63023438 12.911875 37.88546875 12.09375 38.1484375 C9.82970921 38.91122195 9.82970921 38.91122195 8 41 C8.99 41.495 8.99 41.495 10 42 C11.35208914 41.37224433 12.68163705 40.69580267 14 40 C15.051875 39.67 16.10375 39.34 17.1875 39 C20.12865478 38.32012508 20.12865478 38.32012508 21 36 C18.58963478 36 16.79030521 36.62395836 14.5 37.375 Z M6 50 C6.66 50.66 7.32 51.32 8 52 C13.88038465 51.89861406 17.37256069 50.54512215 22.140625 47.15625 C24.09470511 45.94110775 25.75368605 45.43733546 28 45 C28.33 43.35 28.66 41.7 29 40 C19.96770789 39.58287816 12.69865295 44.38660368 6 50 Z M6 41 C6.33 41.66 6.66 42.32 7 43 C7.33 42.34 7.66 41.68 8 41 C7.34 41 6.68 41 6 41 Z M4 42 C3.67 42.66 3.34 43.32 3 44 C3.66 44 4.32 44 5 44 C4.67 43.34 4.34 42.68 4 42 Z M28 45 C27.938125 45.78375 27.87625 46.5675 27.8125 47.375 C27.544375 48.24125 27.27625 49.1075 27 50 C24.4375 51.3125 24.4375 51.3125 22 52 C22.33 52.66 22.66 53.32 23 54 C27.52898017 51.56928629 27.52898017 51.56928629 29.875 47.25 C29.91625 46.5075 29.9575 45.765 30 45 C29.34 45 28.68 45 28 45 Z M35 48 C35 48.66 35 49.32 35 50 C35.66 49.67 36.32 49.34 37 49 C36.34 48.67 35.68 48.34 35 48 Z M33 51 C32.731875 51.639375 32.46375 52.27875 32.1875 52.9375 C31 55 31 55 28 56 C28 56.66 28 57.32 28 58 C27.01 58.33 26.02 58.66 25 59 C25.020625 59.78375 25.04125 60.5675 25.0625 61.375 C25 64 25 64 24 66 C26.91517292 64.92598892 28.77810176 64.22189824 31 62 C31 61.01 31 60.02 31 59 C31.66 59 32.32 59 33 59 C35.29648649 56.4385343 36 55.52032428 36 52 C35.01 51.67 34.02 51.34 33 51 Z M14 57 C15.485 57.99 15.485 57.99 17 59 C18.99983534 58.20882096 18.99983534 58.20882096 21 57 C21.33 56.01 21.66 55.02 22 54 C18.42424104 54 16.94704065 55.08840607 14 57 Z M13 58 C14 60 14 60 14 60 Z M22 66 C21.34 67.32 20.68 68.64 20 70 C21.32 69.34 22.64 68.68 24 68 C24 67.34 24 66.68 24 66 C23.34 66 22.68 66 22 66 Z M-9.125 69.3125 C-10.73761719 69.98732422 -10.73761719 69.98732422 -12.3828125 70.67578125 C-15.11391316 71.73100846 -15.11391316 71.73100846 -16 74 C-14.68 74.33 -13.36 74.66 -12 75 C-12.66 76.65 -13.32 78.3 -14 80 C-13.2575 79.236875 -12.515 78.47375 -11.75 77.6875 C-9 75 -9 75 -6.6875 73.3125 C-6.130625 72.879375 -5.57375 72.44625 -5 72 C-5 71.34 -5 70.68 -5 70 C-3.35 69.34 -1.7 68.68 0 68 C-3.94868623 66.68377126 -5.35071376 67.69819685 -9.125 69.3125 Z M10 69 C-0.78884361 77.53373194 -11.45873587 86.50918918 -13.39453125 100.94140625 C-13.651832 103.62762613 -13.8563623 106.30555478 -14 109 C-10.70037447 106.35649597 -9.9403139 103.32717581 -8.6875 99.375 C-5.87533374 91.17567186 -2.24472252 85.00454089 4 79 C4 78.34 4 77.68 4 77 C4.66 77 5.32 77 6 77 C7.66666667 75.66666667 7.66666667 75.66666667 9 74 C9 73.34 9 72.68 9 72 C9.99 71.67 10.98 71.34 12 71 C11.34 70.34 10.68 69.68 10 69 Z M15 74 C10.96259866 79.06020968 7.60631779 84.06470358 5 90 C4.65066406 90.76828125 4.30132812 91.5365625 3.94140625 92.328125 C0.32773459 102.58435495 1.69876694 113.89702435 6.2109375 123.60546875 C8.18825098 127.27847833 10.31282582 130.79826056 13 134 C13.66 134 14.32 134 15 134 C15.433125 134.9590625 15.433125 134.9590625 15.875 135.9375 C16.82823451 138.15206079 16.82823451 138.15206079 19 139 C19.66 138.34 20.32 137.68 21 137 C20.55269531 136.47792969 20.10539062 135.95585937 19.64453125 135.41796875 C10.26147751 123.99425086 5.79368527 111.76299457 7 97 C8.24363458 90.02937591 11.28704331 84.29028931 14.890625 78.25 C15.25671875 77.5075 15.6228125 76.765 16 76 C15.67 75.34 15.34 74.68 15 74 Z M-16 80 C-16.33 81.32 -16.66 82.64 -17 84 C-16.34 83.67 -15.68 83.34 -15 83 C-15.33 82.01 -15.66 81.02 -16 80 Z " fill="#BB9771" transform="translate(43,2)"/>
<path d="M0 0 C1.65 0 3.3 0 5 0 C7.14994068 6.27482686 7.1137889 11.67186196 6.74609375 18.24023438 C6.59504295 23.44260158 7.47845989 26.79042954 10.14160156 31.28173828 C11 33 11 33 10.875 35.9375 C10 38 10 38 8 39 C7.09656316 40.88263881 7.09656316 40.88263881 6.375 43.0625 C6.11460938 43.79597656 5.85421875 44.52945313 5.5859375 45.28515625 C5.39257812 45.85105469 5.19921875 46.41695312 5 47 C4.34 47 3.68 47 3 47 C3.0928125 48.1446875 3.0928125 48.1446875 3.1875 49.3125 C3 52 3 52 1.7800293 53.6496582 C-0.51661044 55.39190404 -1.80785031 55.34762069 -4.66796875 55.29296875 C-5.56064453 55.28330078 -6.45332031 55.27363281 -7.37304688 55.26367188 C-8.76620117 55.2259668 -8.76620117 55.2259668 -10.1875 55.1875 C-11.12787109 55.17396484 -12.06824219 55.16042969 -13.03710938 55.14648438 C-15.35865038 55.11113096 -17.67903653 55.06178674 -20 55 C-20 55.66 -20 56.32 -20 57 C-21.33333333 58.33333333 -22.66666667 59.66666667 -24 61 C-26.8703101 65.71915754 -26.96922187 70.65078312 -26 76 C-21.74908383 83.38703876 -14.59863527 87.88967713 -6.60546875 90.33984375 C2.89984763 92.74823725 12.22892161 93.28785501 22 93 C22 96.63 22 100.26 22 104 C18.77717912 104.80570522 16.65946471 105.11156545 13.4375 105.0625 C12.67308594 105.05347656 11.90867188 105.04445313 11.12109375 105.03515625 C10.42113281 105.02355469 9.72117188 105.01195312 9 105 C8.01 105 7.02 105 6 105 C2.70273845 104.14515441 -0.4664562 103.2159582 -3.625 101.9375 C-5.9523991 100.91923356 -5.9523991 100.91923356 -8.375 100.625 C-12.0074729 99.7601255 -14.89361553 97.99374573 -18 96 C-18.65355469 95.60039062 -19.30710937 95.20078125 -19.98046875 94.7890625 C-30.19740711 87.95142097 -35.60235722 75.78464043 -38 64 C-38.70393914 54.7675674 -37.64067566 46.13799645 -33 38 C-27.77272727 33 -27.77272727 33 -23 33 C-21.63838689 32.03886134 -20.30144802 31.04115841 -19 30 C-18.34 30 -17.68 30 -17 30 C-17 29.34 -17 28.68 -17 28 C-15.700625 26.9790625 -15.700625 26.9790625 -14.375 25.9375 C-6.51318318 19.59612888 -2.23188636 9.65677562 0 0 Z " fill="#B9946F" transform="translate(87,47)"/>
<path d="M0 0 C2.0625 0.4375 2.0625 0.4375 4 1 C4.93423645 4.01031744 5.04449911 4.86650268 4 8 C4.66 8 5.32 8 6 8 C7.82064665 10.6598868 9.41596707 13.42577777 11.05078125 16.203125 C13.07515574 19.1078387 15.14445852 20.93575315 18 23 C22.19352973 16.54964702 25.17536822 11.89157005 25 4 C25.33 3.34 25.66 2.68 26 2 C27.32 2 28.64 2 30 2 C30.38218767 3.65614657 30.71395102 5.32457024 31 7 C30.67 7.33 30.34 7.66 30 8 C29.91273777 9.78071246 29.89300959 11.5648314 29.90234375 13.34765625 C29.90556641 14.42724609 29.90878906 15.50683594 29.91210938 16.61914062 C29.92048828 17.75544922 29.92886719 18.89175781 29.9375 20.0625 C29.94201172 21.20267578 29.94652344 22.34285156 29.95117188 23.51757812 C29.96300253 26.34510351 29.9794859 29.1725264 30 32 C31.82724609 32.37511719 31.82724609 32.37511719 33.69140625 32.7578125 C37.57115343 33.73095605 39.9750573 35.11560697 42.9375 37.875 C43.68902344 38.55304687 44.44054687 39.23109375 45.21484375 39.9296875 C47.03003892 42.03483726 47.61640467 43.2843886 48 46 C46.68 45.67 45.36 45.34 44 45 C43.896875 45.639375 43.79375 46.27875 43.6875 46.9375 C41.42787223 57.0031146 37.01697312 66.12180148 29 73 C28.34 73 27.68 73 27 73 C27 73.66 27 74.32 27 75 C25.609375 76.32421875 25.609375 76.32421875 23.75 77.6875 C23.14671875 78.14511719 22.5434375 78.60273437 21.921875 79.07421875 C19.49228179 80.24457158 18.52572805 79.69354008 16 79 C13.72855926 80.85432087 13.72855926 80.85432087 12 83 C12.33 82.21625 12.66 81.4325 13 80.625 C14.11866511 78.15667503 14.11866511 78.15667503 14 76 C10.15007597 81.83289859 6.47637204 87.44489755 4 94 C3.34 94 2.68 94 2 94 C1.67 96.31 1.34 98.62 1 101 C-2.50776784 102.60355101 -5.14354879 103.22036864 -9 103 C-9 104.65 -9 106.3 -9 108 C-9.99 108.495 -9.99 108.495 -11 109 C-12.86486054 103.40541837 -9.24259269 97.2498353 -7 92 C-5.20765748 88.81758635 -3.21842676 85.8972896 -1 83 C-0.48695312 82.26007813 0.02609375 81.52015625 0.5546875 80.7578125 C1.03164063 80.17773438 1.50859375 79.59765625 2 79 C2.66 79 3.32 79 4 79 C4 78.34 4 77.68 4 77 C4.66 77 5.32 77 6 77 C6.495 75.515 6.495 75.515 7 74 C7.66 74 8.32 74 9 74 C9 73.34 9 72.68 9 72 C10.97294956 70.38658567 13.05469651 68.98168195 15.15234375 67.53515625 C17.27877271 66.04300394 17.27877271 66.04300394 18 63 C13.25490005 64.36601362 9.35979969 66.45126825 5.25 69.125 C-0.74351211 73 -0.74351211 73 -3 73 C-1.52440331 68.57320993 0.90057368 68.08567304 5 66 C5.66 66 6.32 66 7 66 C7 65.34 7 64.68 7 64 C10 62 10 62 13 62 C13.33 60.68 13.66 59.36 14 58 C14.886875 57.938125 15.77375 57.87625 16.6875 57.8125 C20.77897416 56.80893087 22.21681087 55.08407444 25 52 C25.99 51.34 26.98 50.68 28 50 C29.20450304 47.44816596 29.20450304 47.44816596 30 45 C29.34 45 28.68 45 28 45 C28.33 43.35 28.66 41.7 29 40 C27.1128125 40.5878125 27.1128125 40.5878125 25.1875 41.1875 C22.98046875 41.75390625 22.98046875 41.75390625 21 42 C19 40.625 19 40.625 18 39 C20.71840312 36.15214911 23.7249533 34.18336447 27 32 C26.505 28.535 26.505 28.535 26 25 C23.64046906 27.35953094 23.50858587 28.77895617 23 32 C22.34 31.67 21.68 31.34 21 31 C21 30.34 21 29.68 21 29 C20.34 29 19.68 29 19 29 C19 27.68 19 26.36 19 25 C18.01 25.33 17.02 25.66 16 26 C15.67 25.34 15.34 24.68 15 24 C12.97536745 23.34786708 12.97536745 23.34786708 11 23 C10.34 24.98 9.68 26.96 9 29 C4.25 30.125 4.25 30.125 2 29 C1.67 21.74 1.34 14.48 1 7 C0.01 6.67 -0.98 6.34 -2 6 C-1.125 1.125 -1.125 1.125 0 0 Z M35 48 C35 48.66 35 49.32 35 50 C35.66 49.67 36.32 49.34 37 49 C36.34 48.67 35.68 48.34 35 48 Z M33 51 C32.731875 51.639375 32.46375 52.27875 32.1875 52.9375 C31 55 31 55 28 56 C28 56.66 28 57.32 28 58 C27.01 58.33 26.02 58.66 25 59 C25.020625 59.78375 25.04125 60.5675 25.0625 61.375 C25 64 25 64 24 66 C26.91517292 64.92598892 28.77810176 64.22189824 31 62 C31 61.01 31 60.02 31 59 C31.66 59 32.32 59 33 59 C35.29648649 56.4385343 36 55.52032428 36 52 C35.01 51.67 34.02 51.34 33 51 Z M22 66 C21.34 67.32 20.68 68.64 20 70 C21.32 69.34 22.64 68.68 24 68 C24 67.34 24 66.68 24 66 C23.34 66 22.68 66 22 66 Z " fill="#CFAC8A" transform="translate(43,2)"/>
<path d="M0 0 C2.40607252 1.03117394 3.94905681 1.94541802 5.75 3.875 C9.89035867 7.78533874 14.48176792 10.23716861 20.25 10.3125 C21.4875 10.209375 22.725 10.10625 24 10 C24.78375 9.938125 25.5675 9.87625 26.375 9.8125 C28.29226537 9.05963766 28.29226537 9.05963766 29.25 6.4375 C29.4975 5.633125 29.745 4.82875 30 4 C31.11375 4.2475 31.11375 4.2475 32.25 4.5 C35.19006578 5.11925696 35.19006578 5.11925696 39 5 C38.67 6.65 38.34 8.3 38 10 C38.99 9.67 39.98 9.34 41 9 C41.495 10.98 41.495 10.98 42 13 C41.9175 12.236875 41.835 11.47375 41.75 10.6875 C42 8 42 8 44 6.1875 C44.99 5.5996875 44.99 5.5996875 46 5 C46.495 9.455 46.495 9.455 47 14 C42.64869871 16.17565065 38.31080238 17.55065353 33.6796875 19 C30.89542359 19.82773801 30.89542359 19.82773801 29 22 C30.11375 21.5359375 30.11375 21.5359375 31.25 21.0625 C33.50692176 20.1905075 35.6450153 19.52332993 38 19 C38.66 20.32 39.32 21.64 40 23 C38.98679687 23.48919922 38.98679687 23.48919922 37.953125 23.98828125 C37.06109375 24.42527344 36.1690625 24.86226562 35.25 25.3125 C34.36828125 25.74175781 33.4865625 26.17101562 32.578125 26.61328125 C30.18399785 27.90103146 28.12223042 29.30915754 26 31 C30.0753375 32.14870375 32.31586165 31.84510008 36.1875 30.1875 C37.04730469 29.83042969 37.90710937 29.47335938 38.79296875 29.10546875 C41.1305828 28.07978806 41.1305828 28.07978806 43 26 C44.32 26 45.64 26 47 26 C46.75 28.375 46.75 28.375 46 31 C44 32.1875 44 32.1875 42 33 C41.505 33.99 41.505 33.99 41 35 C38.97550422 36.03842671 36.90616155 36.91488134 34.8125 37.8046875 C32.49409105 39.33363823 32.59444837 40.3802187 32 43 C28.9375 44.25 28.9375 44.25 26 45 C26 45.66 26 46.32 26 47 C25.36191406 47.31453125 24.72382812 47.6290625 24.06640625 47.953125 C23.24011719 48.38109375 22.41382813 48.8090625 21.5625 49.25 C20.73878906 49.66765625 19.91507813 50.0853125 19.06640625 50.515625 C16.57526336 52.30510382 16.62274057 53.1087045 16 56 C14.37109375 57.703125 14.37109375 57.703125 12.4375 59.25 C11.47650391 60.03117187 11.47650391 60.03117187 10.49609375 60.828125 C10.00238281 61.21484375 9.50867188 61.6015625 9 62 C8.01 61.34 7.02 60.68 6 60 C6.95117134 58.8274869 7.91117009 57.66212985 8.875 56.5 C9.40867187 55.8503125 9.94234375 55.200625 10.4921875 54.53125 C10.98976562 54.0259375 11.48734375 53.520625 12 53 C12.66 53 13.32 53 14 53 C14 52.34 14 51.68 14 51 C14.66 50.34 15.32 49.68 16 49 C9.01423137 51.71268679 2.49894469 54.66149994 -3.84375 58.66796875 C-5.85067801 59.9077558 -7.87428466 60.98062287 -10 62 C-10 62.66 -10 63.32 -10 64 C-10.66 64 -11.32 64 -12 64 C-12.268125 64.55171875 -12.53625 65.1034375 -12.8125 65.671875 C-14.12796584 68.25088039 -15.53849162 70.75082068 -17 73.25 C-17.515625 74.14203125 -18.03125 75.0340625 -18.5625 75.953125 C-19.036875 76.62859375 -19.51125 77.3040625 -20 78 C-20.66 78 -21.32 78 -22 78 C-21.96516247 68.01904749 -19.7943298 60.52323219 -13.17578125 52.8984375 C-5.20043524 45.29516645 5.79461687 42.24846149 16.625 41.875 C17.40875 41.91625 18.1925 41.9575 19 42 C18.2265625 40.948125 18.2265625 40.948125 17.4375 39.875 C15.64672073 36.29344145 15.89126038 34.80139297 17 31 C18.5625 28.125 18.5625 28.125 20 26 C19.26394531 25.60941406 18.52789062 25.21882813 17.76953125 24.81640625 C14.73641672 22.82712803 12.91575495 20.78681283 10.6875 17.9375 C9.64142578 16.62072266 9.64142578 16.62072266 8.57421875 15.27734375 C7 13 7 13 7 11 C6.01 10.67 5.02 10.34 4 10 C3.67 9.34 3.34 8.68 3 8 C1.7625 7.5359375 1.7625 7.5359375 0.5 7.0625 C-0.325 6.711875 -1.15 6.36125 -2 6 C-2.33 5.01 -2.66 4.02 -3 3 C-2.01 2.01 -1.02 1.02 0 0 Z M25 22 C25.33 22.66 25.66 23.32 26 24 C26.33 23.34 26.66 22.68 27 22 C26.34 22 25.68 22 25 22 Z M23 23 C22.67 23.66 22.34 24.32 22 25 C22.66 25 23.32 25 24 25 C23.67 24.34 23.34 23.68 23 23 Z " fill="#C5A384" transform="translate(24,21)"/>
<path d="M0 0 C0.99 0.33 1.98 0.66 3 1 C2.38125 1.7425 1.7625 2.485 1.125 3.25 C-2.71483858 8.21920287 -3.62043942 11.91179806 -3.51171875 18.17578125 C-2.40666287 24.27467742 2.26547304 27.60483701 6.875 31.3125 C18.62918441 37.65975958 31.88092743 38.38648659 45 38 C45 41.63 45 45.26 45 49 C41.77717912 49.80570522 39.65946471 50.11156545 36.4375 50.0625 C35.29087891 50.04896484 35.29087891 50.04896484 34.12109375 50.03515625 C33.42113281 50.02355469 32.72117188 50.01195312 32 50 C31.01 50 30.02 50 29 50 C25.70273845 49.14515441 22.5335438 48.2159582 19.375 46.9375 C17.0476009 45.91923356 17.0476009 45.91923356 14.625 45.625 C10.9925271 44.7601255 8.10638447 42.99374573 5 41 C4.34644531 40.60039062 3.69289063 40.20078125 3.01953125 39.7890625 C-4.00791185 35.08597679 -8.66155844 28.38711401 -11.125 20.3125 C-10.78369457 11.26790601 -6.06104771 6.21941237 0 0 Z " fill="#AA8463" transform="translate(64,102)"/>
<path d="M0 0 C-0.99 1.98 -1.98 3.96 -3 6 C-3.66 6 -4.32 6 -5 6 C-5.268125 6.70125 -5.53625 7.4025 -5.8125 8.125 C-7 11 -7 11 -8.5 13.6875 C-13.3307011 24.35529825 -12.92189978 35.1571006 -9 46 C-7.79436584 48.45182483 -6.50256907 50.78970433 -5.0859375 53.125 C-4 55 -4 55 -3 58 C-2.34 58 -1.68 58 -1 58 C-1 58.66 -1 59.32 -1 60 C-0.34 60.33 0.32 60.66 1 61 C-1.52273893 61.92790397 -2.73724844 62.08450301 -5.33203125 61.25 C-13.99320717 56.88531292 -19.71290664 51.73907494 -24 43 C-26.53238481 34.84572093 -25.44069223 25.70664275 -22 18 C-20.24006798 15.11371149 -18.39930574 12.39262243 -16 10 C-15.34 10 -14.68 10 -14 10 C-13.67 9.01 -13.34 8.02 -13 7 C-12.34 6.34 -11.68 5.68 -11 5 C-10.34 4.319375 -9.68 3.63875 -9 2.9375 C-5.93604311 -0.03070823 -4.16243619 -0.10953779 0 0 Z " fill="#C1A181" transform="translate(32,76)"/>
<path d="M0 0 C1.32 0 2.64 0 4 0 C3.75 2.375 3.75 2.375 3 5 C1 6.1875 1 6.1875 -1 7 C-1.33 7.66 -1.66 8.32 -2 9 C-4.02449578 10.03842671 -6.09383845 10.91488134 -8.1875 11.8046875 C-10.50590895 13.33363823 -10.40555163 14.3802187 -11 17 C-14.0625 18.25 -14.0625 18.25 -17 19 C-17 19.66 -17 20.32 -17 21 C-17.63808594 21.31453125 -18.27617188 21.6290625 -18.93359375 21.953125 C-19.75988281 22.38109375 -20.58617187 22.8090625 -21.4375 23.25 C-22.26121094 23.66765625 -23.08492187 24.0853125 -23.93359375 24.515625 C-26.42473664 26.30510382 -26.37725943 27.1087045 -27 30 C-28.62890625 31.703125 -28.62890625 31.703125 -30.5625 33.25 C-31.52349609 34.03117187 -31.52349609 34.03117187 -32.50390625 34.828125 C-32.99761719 35.21484375 -33.49132812 35.6015625 -34 36 C-34.99 35.34 -35.98 34.68 -37 34 C-36.04882866 32.8274869 -35.08882991 31.66212985 -34.125 30.5 C-33.32449219 29.52546875 -33.32449219 29.52546875 -32.5078125 28.53125 C-32.01023438 28.0259375 -31.51265625 27.520625 -31 27 C-30.34 27 -29.68 27 -29 27 C-29 26.34 -29 25.68 -29 25 C-28.34 24.34 -27.68 23.68 -27 23 C-33.98576863 25.71268679 -40.50105531 28.66149994 -46.84375 32.66796875 C-48.85067801 33.9077558 -50.87428466 34.98062287 -53 36 C-53 36.66 -53 37.32 -53 38 C-53.66 38 -54.32 38 -55 38 C-55.268125 38.55171875 -55.53625 39.1034375 -55.8125 39.671875 C-57.12796584 42.25088039 -58.53849162 44.75082068 -60 47.25 C-60.515625 48.14203125 -61.03125 49.0340625 -61.5625 49.953125 C-62.036875 50.62859375 -62.51125 51.3040625 -63 52 C-63.66 52 -64.32 52 -65 52 C-64.96516247 42.01904749 -62.7943298 34.52323219 -56.17578125 26.8984375 C-48.20043524 19.29516645 -37.20538313 16.24846149 -26.375 15.875 C-25.59125 15.91625 -24.8075 15.9575 -24 16 C-24.66 14.68 -25.32 13.36 -26 12 C-21.14418605 12.94418605 -21.14418605 12.94418605 -19.0625 13.75 C-15.84066053 14.140526 -13.74319962 12.55863615 -11 11 C-11 10.01 -11 9.02 -11 8 C-8.94045353 4.9106803 -8.15316432 4.35735706 -4.9375 2.875 C-2.26904813 1.72576774 -2.26904813 1.72576774 0 0 Z " fill="#CDB090" transform="translate(67,47)"/>
<path d="M0 0 C2.0625 0.4375 2.0625 0.4375 4 1 C4.93423645 4.01031744 5.04449911 4.86650268 4 8 C4.66 8 5.32 8 6 8 C7.82064665 10.6598868 9.41596707 13.42577777 11.05078125 16.203125 C13.07515574 19.1078387 15.14445852 20.93575315 18 23 C22.19352973 16.54964702 25.17536822 11.89157005 25 4 C25.33 3.34 25.66 2.68 26 2 C27.32 2 28.64 2 30 2 C30.38218767 3.65614657 30.71395102 5.32457024 31 7 C30.67 7.33 30.34 7.66 30 8 C29.91273777 9.78071246 29.89300959 11.5648314 29.90234375 13.34765625 C29.90717773 14.96704102 29.90717773 14.96704102 29.91210938 16.61914062 C29.92048828 17.75544922 29.92886719 18.89175781 29.9375 20.0625 C29.94201172 21.20267578 29.94652344 22.34285156 29.95117188 23.51757812 C29.96300253 26.34510351 29.9794859 29.1725264 30 32 C31.82724609 32.37511719 31.82724609 32.37511719 33.69140625 32.7578125 C37.57115343 33.73095605 39.9750573 35.11560697 42.9375 37.875 C43.68902344 38.55304687 44.44054687 39.23109375 45.21484375 39.9296875 C47.03003892 42.03483726 47.61640467 43.2843886 48 46 C46.68 45.67 45.36 45.34 44 45 C43.855625 45.721875 43.71125 46.44375 43.5625 47.1875 C43.04166667 49.79166667 42.52083333 52.39583333 42 55 C41.67 55 41.34 55 41 55 C40.67 50.71 40.34 46.42 40 42 C38.02 42.495 38.02 42.495 36 43 C36 42.34 36 41.68 36 41 C35.01 41 34.02 41 33 41 C32.67 41.99 32.34 42.98 32 44 C31.01 43.67 30.02 43.34 29 43 C29 42.01 29 41.02 29 40 C27.1128125 40.5878125 27.1128125 40.5878125 25.1875 41.1875 C22.98046875 41.75390625 22.98046875 41.75390625 21 42 C19 40.625 19 40.625 18 39 C20.71840312 36.15214911 23.7249533 34.18336447 27 32 C26.67 29.69 26.34 27.38 26 25 C23.64046906 27.35953094 23.50858587 28.77895617 23 32 C22.34 31.67 21.68 31.34 21 31 C21 30.34 21 29.68 21 29 C20.34 29 19.68 29 19 29 C19 27.68 19 26.36 19 25 C18.01 25.33 17.02 25.66 16 26 C15.67 25.34 15.34 24.68 15 24 C12.97536745 23.34786708 12.97536745 23.34786708 11 23 C10.34 24.98 9.68 26.96 9 29 C4.25 30.125 4.25 30.125 2 29 C1.67 21.74 1.34 14.48 1 7 C0.01 6.67 -0.98 6.34 -2 6 C-1.125 1.125 -1.125 1.125 0 0 Z " fill="#CBAB89" transform="translate(43,2)"/>
<path d="M0 0 C-1.39559727 3.3726934 -2.8921588 5.08045102 -6 7 C-6.59425781 7.11085938 -7.18851563 7.22171875 -7.80078125 7.3359375 C-16.59956253 9.99276311 -23.63238953 19.33796335 -28 27 C-31.85400635 34.39398256 -32.82205133 42.89739297 -31 51 C-31 53 -31 53 -32 56 C-34.3125 55.5625 -34.3125 55.5625 -37 54 C-38.36075884 51.09244107 -39.21362959 48.10712212 -40 45 C-39.505 44.505 -39.505 44.505 -39 44 C-39.00599378 42.20785893 -39.05594524 40.4158202 -39.125 38.625 C-39.19485735 31.30744261 -38.0416644 23.29344885 -34 17 C-32.453125 16.87625 -32.453125 16.87625 -30.875 16.75 C-26.65014852 15.93228681 -26.25439337 15.53211049 -23.5625 12.5 C-19.74129537 8.33896492 -15.56330148 5.68669731 -10.6875 2.9375 C-9.98117432 2.53144531 -9.27484863 2.12539062 -8.54711914 1.70703125 C-3.38274611 -1.12758204 -3.38274611 -1.12758204 0 0 Z " fill="#AB8866" transform="translate(62,65)"/>
<path d="M0 0 C1.00417969 0.144375 2.00835937 0.28875 3.04296875 0.4375 C11.74984279 1.63704723 20.18972321 2.27154963 29 2 C29 5.63 29 9.26 29 13 C25.77717912 13.80570522 23.65946471 14.11156545 20.4375 14.0625 C19.67308594 14.05347656 18.90867187 14.04445312 18.12109375 14.03515625 C17.42113281 14.02355469 16.72117187 14.01195312 16 14 C15.01 14 14.02 14 13 14 C9.70273845 13.14515441 6.5335438 12.2159582 3.375 10.9375 C1.02573133 9.91804653 1.02573133 9.91804653 -1.5 9.5625 C-4.43484734 8.90215935 -6.50013631 7.64276757 -9 6 C-7 5 -7 5 -4 5 C-3.360625 4.79375 -2.72125 4.5875 -2.0625 4.375 C0.58570244 3.89350865 1.74606103 4.63153705 4 6 C1.96731398 3.83656989 1.96731398 3.83656989 -1 2 C-0.67 1.34 -0.34 0.68 0 0 Z " fill="#AD8B63" transform="translate(80,138)"/>
<path d="M0 0 C2.40607252 1.03117394 3.94905681 1.94541802 5.75 3.875 C9.89035867 7.78533874 14.48176792 10.23716861 20.25 10.3125 C21.4875 10.209375 22.725 10.10625 24 10 C24.78375 9.938125 25.5675 9.87625 26.375 9.8125 C28.29226537 9.05963766 28.29226537 9.05963766 29.25 6.4375 C29.4975 5.633125 29.745 4.82875 30 4 C31.11375 4.2475 31.11375 4.2475 32.25 4.5 C35.19006578 5.11925696 35.19006578 5.11925696 39 5 C39.25 7.8125 39.25 7.8125 39 11 C37.25 12.6875 37.25 12.6875 35 14 C34.2575 14.556875 33.515 15.11375 32.75 15.6875 C32.1725 16.120625 31.595 16.55375 31 17 C31 16.01 31 15.02 31 14 C28.36 14 25.72 14 23 14 C22.67 14.99 22.34 15.98 22 17 C21.34 17 20.68 17 20 17 C18.31267956 18.27056525 18.31267956 18.27056525 17 20 C17 20.99 17 21.98 17 23 C18.32 23.66 19.64 24.32 21 25 C17.40399917 24.73812427 16.15093061 24.14949089 13.54296875 21.56640625 C12.76566406 20.57511719 11.98835938 19.58382812 11.1875 18.5625 C10.39730469 17.57378906 9.60710938 16.58507812 8.79296875 15.56640625 C7 13 7 13 7 11 C6.01 10.67 5.02 10.34 4 10 C3.67 9.34 3.34 8.68 3 8 C2.175 7.690625 1.35 7.38125 0.5 7.0625 C-0.325 6.711875 -1.15 6.36125 -2 6 C-2.33 5.01 -2.66 4.02 -3 3 C-2.01 2.01 -1.02 1.02 0 0 Z " fill="#BD9874" transform="translate(24,21)"/>
<path d="M0 0 C0.495 1.98 0.495 1.98 1 4 C-0.12019531 4.54269531 -1.24039063 5.08539063 -2.39453125 5.64453125 C-3.86734492 6.36686662 -5.33999254 7.08954062 -6.8125 7.8125 C-7.91948242 8.34713867 -7.91948242 8.34713867 -9.04882812 8.89257812 C-9.76103516 9.24384766 -10.47324219 9.59511719 -11.20703125 9.95703125 C-11.8616333 10.27647705 -12.51623535 10.59592285 -13.19067383 10.92504883 C-15.0814242 11.94580063 -15.0814242 11.94580063 -16.61206055 13.62768555 C-18 15 -18 15 -20 15 C-20 15.66 -20 16.32 -20 17 C-20.66 17 -21.32 17 -22 17 C-22.268125 17.55171875 -22.53625 18.1034375 -22.8125 18.671875 C-24.12796584 21.25088039 -25.53849162 23.75082068 -27 26.25 C-27.515625 27.14203125 -28.03125 28.0340625 -28.5625 28.953125 C-29.036875 29.62859375 -29.51125 30.3040625 -30 31 C-30.66 31 -31.32 31 -32 31 C-31.96574638 21.18633864 -29.77270956 13.94611053 -23.5859375 6.23828125 C-20.10322812 2.84312602 -16.68630959 2.39039703 -12.05078125 2.23828125 C-7.58990399 1.7199698 -5.00214769 -0.18876029 0 0 Z " fill="#BF9E79" transform="translate(34,68)"/>
<path d="M0 0 C2.3125 0.8125 2.3125 0.8125 5 3 C5.93934666 5.65777229 6.54599016 8.3242907 7.1796875 11.0703125 C8.22451397 14.8018356 9.91440246 17.82859072 11.9140625 21.125 C13 23 13 23 14 26 C14.66 26 15.32 26 16 26 C16 26.66 16 27.32 16 28 C16.66 28.33 17.32 28.66 18 29 C15.47726107 29.92790397 14.26275156 30.08450301 11.66796875 29.25 C3.26445472 25.01515828 -3.18966986 19.78032597 -7 11 C-6.25 8.5625 -6.25 8.5625 -5 7 C-4.67 7.33 -4.34 7.66 -4 8 C-3.67 6.68 -3.34 5.36 -3 4 C-2.34 4 -1.68 4 -1 4 C-0.67 2.68 -0.34 1.36 0 0 Z " fill="#AA8463" transform="translate(15,108)"/>
<path d="M0 0 C2.3431213 0.25561323 4.67843403 0.59270772 7 1 C9.31481686 5.62963372 8.71817587 12.36058934 7.38671875 17.25390625 C4.81676514 22.85799012 0.57607467 27.91549585 -4 32 C-6.25 32.75390625 -6.25 32.75390625 -8 33 C-8.33 30.36 -8.66 27.72 -9 25 C-7.5459375 24.1028125 -7.5459375 24.1028125 -6.0625 23.1875 C-2.76947958 21.28872491 -2.76947958 21.28872491 -2 18 C-1.34 18 -0.68 18 0 18 C1.20628008 15.66785852 2.1654738 13.50357861 3 11 C0.36 10.67 -2.28 10.34 -5 10 C-4.34 8.02 -3.68 6.04 -3 4 C-3.66 4 -4.32 4 -5 4 C-5 3.34 -5 2.68 -5 2 C-3.68 2 -2.36 2 -1 2 C-0.67 1.34 -0.34 0.68 0 0 Z M2 7 C2 7.66 2 8.32 2 9 C2.66 8.67 3.32 8.34 4 8 C3.34 7.67 2.68 7.34 2 7 Z " fill="#E1C9A8" transform="translate(76,43)"/>
<path d="M0 0 C1.093125 0.103125 2.18625 0.20625 3.3125 0.3125 C7.20848536 0.75248377 10.75584448 1.78479534 14.5 2.9375 C22.24966717 5.2489517 29.97014995 6.20744337 38 7 C38 7.99 38 8.98 38 10 C19.77477011 11.77607188 2.5553387 10.27766935 -14 2 C-11.92446352 1.4465236 -10.15634036 1 -8 1 C-6.7934375 0.4740625 -6.7934375 0.4740625 -5.5625 -0.0625 C-3 -1 -3 -1 0 0 Z " fill="#AF8966" transform="translate(71,153)"/>
<path d="M0 0 C1.32 0 2.64 0 4 0 C3.814375 0.763125 3.62875 1.52625 3.4375 2.3125 C2.77180827 5.08967375 2.77180827 5.08967375 4 8 C4.66 8 5.32 8 6 8 C6.33 9.32 6.66 10.64 7 12 C7.66 12 8.32 12 9 12 C9.33 11.01 9.66 10.02 10 9 C11.32 9.66 12.64 10.32 14 11 C15.42258812 7.17679443 16.24042276 4.08718695 16 0 C17.70884005 1.62339805 19.37446717 3.29319053 21 5 C21 5.66 21 6.32 21 7 C21.66 7 22.32 7 23 7 C24.35432675 8.31200404 25.68733482 9.64631404 27 11 C27.66 11.33 28.32 11.66 29 12 C25.25 15 25.25 15 23 15 C22.01 17.475 22.01 17.475 21 20 C20.34 20 19.68 20 19 20 C19 20.99 19 21.98 19 23 C11.05025229 20.22878513 4.9574948 14.0561211 0.796875 6.83203125 C-0.23241119 4.46568212 -0.39728458 2.54262129 0 0 Z " fill="#B08E6C" transform="translate(35,129)"/>
<path d="M0 0 C1.85776765 3.13498292 2.20140476 5.37471432 2 9 C-1.12232971 10.67954702 -4.2423191 11.76377967 -7.625 12.8125 C-12.72589384 14.45251844 -17.22103971 16.5456065 -21.84375 19.2421875 C-24 20 -24 20 -26.234375 19.265625 C-28 18 -28 18 -28.75 15.875 C-28.8325 15.25625 -28.915 14.6375 -29 14 C-28.01 14 -27.02 14 -26 14 C-25.67 13.01 -25.34 12.02 -25 11 C-23.375 9.25 -23.375 9.25 -21 8 C-17.3125 8.1875 -17.3125 8.1875 -14 9 C-13.67 9.66 -13.34 10.32 -13 11 C-11.88625 9.824375 -11.88625 9.824375 -10.75 8.625 C-8.45566682 6.43495469 -6.87841142 5.17268614 -4 4 C-3.67 5.32 -3.34 6.64 -3 8 C-3.061875 7.236875 -3.12375 6.47375 -3.1875 5.6875 C-3 3 -3 3 -1.5 1.1875 C-1.005 0.795625 -0.51 0.40375 0 0 Z " fill="#B08C6A" transform="translate(69,26)"/>
<path d="M0 0 C-1.29373338 3.49308011 -2.8413402 6.44878772 -4.875 9.5625 C-8.2681878 15.07643017 -10.19225495 20.81113165 -12 27 C-13.65 27 -15.3 27 -17 27 C-17 28.65 -17 30.3 -17 32 C-17.99 32.495 -17.99 32.495 -19 33 C-20.86486054 27.40541837 -17.24259269 21.2498353 -15 16 C-13.20765748 12.81758635 -11.21842676 9.8972896 -9 7 C-8.23042969 5.89011719 -8.23042969 5.89011719 -7.4453125 4.7578125 C-6.96835937 4.17773438 -6.49140625 3.59765625 -6 3 C-5.34 3 -4.68 3 -4 3 C-4 2.34 -4 1.68 -4 1 C-2 0 -2 0 0 0 Z " fill="#E4CDAD" transform="translate(51,78)"/>
<path d="M0 0 C0.99 0.33 1.98 0.66 3 1 C2.38125 1.7425 1.7625 2.485 1.125 3.25 C-2.12910163 7.46119035 -3.27946852 10.13672946 -3.25 15.5 C-3.25515625 16.4384375 -3.2603125 17.376875 -3.265625 18.34375 C-2.99595232 21.04047676 -2.3732259 22.68949293 -1 25 C-1.99 25 -2.98 25 -4 25 C-4.33 24.67 -4.66 24.34 -5 24 C-5 24.99 -5 25.98 -5 27 C-4.34 27.33 -3.68 27.66 -3 28 C-3.66 29.32 -4.32 30.64 -5 32 C-8.42628995 27.1323925 -11 23.14504437 -11 17 C-9.23650537 9.71088887 -5.16474818 5.2996941 0 0 Z " fill="#97775F" transform="translate(64,102)"/>
<path d="M0 0 C2.31 0.66 4.62 1.32 7 2 C7.33 3.32 7.66 4.64 8 6 C7.01 6.33 6.02 6.66 5 7 C5 7.66 5 8.32 5 9 C4.34 9 3.68 9 3 9 C2.731875 9.55171875 2.46375 10.1034375 2.1875 10.671875 C0.87203416 13.25088039 -0.53849162 15.75082068 -2 18.25 C-2.515625 19.14203125 -3.03125 20.0340625 -3.5625 20.953125 C-4.036875 21.62859375 -4.51125 22.3040625 -5 23 C-5.66 23 -6.32 23 -7 23 C-6.96813748 13.87138673 -4.93267375 7.66299163 0 0 Z " fill="#B29173" transform="translate(9,76)"/>
<path d="M0 0 C2.0625 0.4375 2.0625 0.4375 4 1 C4.93423645 4.01031744 5.04449911 4.86650268 4 8 C4.66 8 5.32 8 6 8 C7.32 10.31 8.64 12.62 10 15 C8.68 14.67 7.36 14.34 6 14 C6.350625 14.721875 6.70125 15.44375 7.0625 16.1875 C8.13832828 19.41498485 8.24598883 20.84349497 7 24 C5.36609738 25.0526823 3.70046615 26.05862194 2 27 C1.8312461 24.60429729 1.66493164 22.20846637 1.5 19.8125 C1.45230469 19.13896484 1.40460937 18.46542969 1.35546875 17.77148438 C1.10976179 14.17363248 0.94398016 10.60627694 1 7 C0.01 6.67 -0.98 6.34 -2 6 C-1.125 1.125 -1.125 1.125 0 0 Z " fill="#DDC7AC" transform="translate(43,2)"/>
<path d="M0 0 C0.33 0.99 0.66 1.98 1 3 C1.33 2.34 1.66 1.68 2 1 C3.66666667 1 5.33333333 1 7 1 C6.98839844 1.80824219 6.97679687 2.61648437 6.96484375 3.44921875 C6.95582031 4.51785156 6.94679688 5.58648437 6.9375 6.6875 C6.92589844 7.74324219 6.91429687 8.79898438 6.90234375 9.88671875 C6.99151385 12.72946154 7.38463834 15.23329523 8 18 C8 20 8 20 7 23 C4.6875 22.5625 4.6875 22.5625 2 21 C0.63924116 18.09244107 -0.21362959 15.10712212 -1 12 C-0.67 11.67 -0.34 11.34 0 11 C0.07226502 9.14712498 0.0838122 7.29166122 0.0625 5.4375 C0.05347656 4.42558594 0.04445313 3.41367188 0.03515625 2.37109375 C0.02355469 1.58863281 0.01195313 0.80617188 0 0 Z " fill="#A78363" transform="translate(23,98)"/>
<path d="M0 0 C0.66 0.33 1.32 0.66 2 1 C1.62488281 1.53367187 1.24976562 2.06734375 0.86328125 2.6171875 C-2.9646066 8.19028366 -6.11636439 13.88822365 -9 20 C-9.66 20 -10.32 20 -11 20 C-11.33 22.31 -11.66 24.62 -12 27 C-13.32 27.33 -14.64 27.66 -16 28 C-17.87540159 22.37379523 -13.5102645 16.14777744 -11 11 C-9.47271963 8.38298445 -7.98052644 6.31061418 -6 4 C-5.34 4 -4.68 4 -4 4 C-3.67 3.01 -3.34 2.02 -3 1 C-2.01 0.67 -1.02 0.34 0 0 Z " fill="#CDAF8B" transform="translate(56,76)"/>
<path d="M0 0 C1.83984375 0.42578125 1.83984375 0.42578125 3.9375 1.3125 C8.62539222 3.04481674 12.95033419 3.44375455 17.9140625 3.75 C22.67665582 4.13583034 27.3217603 5.05145927 32 6 C32 7.32 32 8.64 32 10 C19.75722237 9.68200578 7.57796602 8.8688091 -3 2 C-2.01 1.34 -1.02 0.68 0 0 Z " fill="#CEB394" transform="translate(77,150)"/>
<path d="M0 0 C2.40607252 1.03117394 3.94905681 1.94541802 5.75 3.875 C8.79034252 6.7464346 12.2222124 8.27615517 16 10 C15.01 10.495 15.01 10.495 14 11 C14.66 12.65 15.32 14.3 16 16 C15.01 16.33 14.02 16.66 13 17 C12.67 17.66 12.34 18.32 12 19 C7 13.25 7 13.25 7 11 C6.01 10.67 5.02 10.34 4 10 C3.67 9.34 3.34 8.68 3 8 C2.175 7.690625 1.35 7.38125 0.5 7.0625 C-0.325 6.711875 -1.15 6.36125 -2 6 C-2.33 5.01 -2.66 4.02 -3 3 C-2.01 2.01 -1.02 1.02 0 0 Z " fill="#DFC7A8" transform="translate(24,21)"/>
<path d="M0 0 C-1.39559727 3.3726934 -2.8921588 5.08045102 -6 7 C-6.58652344 7.10054687 -7.17304687 7.20109375 -7.77734375 7.3046875 C-11.0137007 8.31711551 -13.09667048 10.27559286 -15.6875 12.4375 C-16.66074219 13.24058594 -17.63398437 14.04367188 -18.63671875 14.87109375 C-21.03981446 16.77527265 -21.03981446 16.77527265 -22 19 C-23.32 18.67 -24.64 18.34 -26 18 C-25.01 18 -24.02 18 -23 18 C-23.268125 17.46375 -23.53625 16.9275 -23.8125 16.375 C-24 14 -24 14 -22.01953125 11.16015625 C-18.84109859 7.51363424 -15.09033504 5.34676626 -10.875 3.0625 C-10.15957031 2.65193359 -9.44414063 2.24136719 -8.70703125 1.81835938 C-3.38816251 -1.1293875 -3.38816251 -1.1293875 0 0 Z " fill="#B69777" transform="translate(62,65)"/>
<path d="M0 0 C-1.1875 2.9375 -1.1875 2.9375 -3 6 C-3.763125 6.12375 -4.52625 6.2475 -5.3125 6.375 C-9.29117028 7.30027216 -10.47379649 9.99100317 -12.66796875 13.28515625 C-13.10753906 13.85105469 -13.54710937 14.41695312 -14 15 C-14.66 15 -15.32 15 -16 15 C-16.19335938 15.62648438 -16.38671875 16.25296875 -16.5859375 16.8984375 C-16.84632812 17.71570313 -17.10671875 18.53296875 -17.375 19.375 C-17.63023438 20.18710938 -17.88546875 20.99921875 -18.1484375 21.8359375 C-19 24 -19 24 -21 26 C-21.66 25.67 -22.32 25.34 -23 25 C-22.73564694 18.65552665 -20.45527379 14.54981541 -16 10 C-15.34 10 -14.68 10 -14 10 C-13.67 9.01 -13.34 8.02 -13 7 C-12.34 6.34 -11.68 5.68 -11 5 C-10.34 4.319375 -9.68 3.63875 -9 2.9375 C-5.93604311 -0.03070823 -4.16243619 -0.10953779 0 0 Z " fill="#DEC9AA" transform="translate(32,76)"/>
<path d="M0 0 C3 1 3 1 5 3 C5.66 3.33 6.32 3.66 7 4 C7 4.66 7 5.32 7 6 C7.66 6 8.32 6 9 6 C8.34309381 9.78239671 7.279869 13.21841526 5.9375 16.8125 C5.57527344 17.78832031 5.21304688 18.76414062 4.83984375 19.76953125 C4.56269531 20.50558594 4.28554688 21.24164063 4 22 C-0.52485198 15.21272203 -0.26070945 7.87921889 0 0 Z " fill="#AA8464" transform="translate(49,100)"/>
<path d="M0 0 C1.50626953 0.2165625 1.50626953 0.2165625 3.04296875 0.4375 C11.74984279 1.63704723 20.18972321 2.27154963 29 2 C28.67 3.32 28.34 4.64 28 6 C24.47932649 6.08782542 20.95893856 6.14066643 17.4375 6.1875 C15.9515332 6.22520508 15.9515332 6.22520508 14.43554688 6.26367188 C8.46904038 6.32313872 4.28475584 5.82397192 -1 3 C-0.67 2.01 -0.34 1.02 0 0 Z " fill="#B08F67" transform="translate(80,138)"/>
<path d="M0 0 C2.54106009 2.20961747 3.30621489 3.73988358 4 7 C2.92892883 7.86949317 1.84254056 8.72014205 0.75 9.5625 C0.14671875 10.03816406 -0.4565625 10.51382813 -1.078125 11.00390625 C-3.51933888 12.26916954 -4.43356202 11.71523681 -7 11 C-9.27144074 12.85432087 -9.27144074 12.85432087 -11 15 C-10.690625 14.2575 -10.38125 13.515 -10.0625 12.75 C-8.75714148 9.44425905 -8.75714148 9.44425905 -8 6 C-8.66 5.34 -9.32 4.68 -10 4 C-8.68 3.34 -7.36 2.68 -6 2 C-6 2.66 -6 3.32 -6 4 C-4.02 2.68 -2.04 1.36 0 0 Z " fill="#CDAC90" transform="translate(66,70)"/>
<path d="M0 0 C4.69403825 2.4071991 4.69403825 2.4071991 6 4.9375 C6 7 6 7 4.9375 9.125 C1.75522848 12.2046176 -1.64402534 13 -6 13 C-6.625 11.125 -6.625 11.125 -7 9 C-6.34 8.34 -5.68 7.68 -5 7 C-4.67 7.33 -4.34 7.66 -4 8 C-3.67 6.68 -3.34 5.36 -3 4 C-2.34 4 -1.68 4 -1 4 C-0.67 2.68 -0.34 1.36 0 0 Z " fill="#B4936F" transform="translate(15,108)"/>
<path d="M0 0 C-0.33 0.66 -0.66 1.32 -1 2 C-3.40625 2.78125 -3.40625 2.78125 -6.5 3.5 C-7.58410156 3.75523438 -8.66820313 4.01046875 -9.78515625 4.2734375 C-10.84605469 4.51320313 -11.90695313 4.75296875 -13 5 C-13.86496094 5.19851562 -14.72992188 5.39703125 -15.62109375 5.6015625 C-17.112871 5.93865888 -18.60627958 6.26865482 -20.1015625 6.58984375 C-21.67757506 6.93034029 -23.24624042 7.30463655 -24.8125 7.6875 C-27.19882831 8.02840404 -28.70352216 7.64031772 -31 7 C-21.35076504 1.51318012 -11.06948169 -0.67466367 0 0 Z " fill="#E5CFB2" transform="translate(47,63)"/>
<path d="M0 0 C0.90105469 0.00902344 1.80210938 0.01804688 2.73046875 0.02734375 C3.41753906 0.03894531 4.10460938 0.05054688 4.8125 0.0625 C5.1425 1.0525 5.4725 2.0425 5.8125 3.0625 C3.45735515 6.59521727 1.71185989 7.50275604 -2.1875 9.0625 C-4.60367501 8.79403611 -6.0230949 8.14470255 -8.1875 7.0625 C-8.1875 5.0825 -8.1875 3.1025 -8.1875 1.0625 C-5.17259443 0.05753148 -3.14568308 -0.04085303 0 0 Z " fill="#B19266" transform="translate(52.1875,52.9375)"/>
<path d="M0 0 C2.22499551 2.22499551 2.94802533 3.77386322 3.08178711 6.92944336 C3.0638208 7.64237549 3.04585449 8.35530762 3.02734375 9.08984375 C3.01509766 9.87423828 3.00285156 10.65863281 2.99023438 11.46679688 C2.95515958 13.110116 2.91611539 14.75335532 2.87304688 16.39648438 C2.86208984 17.18216797 2.85113281 17.96785156 2.83984375 18.77734375 C2.82300537 19.49140381 2.80616699 20.20546387 2.78881836 20.94116211 C3.03432756 23.33466398 3.89282165 24.88289729 5 27 C5.125 29.75 5.125 29.75 5 32 C-0.84834209 26.43015039 -0.84834209 26.43015039 -1.36328125 21.57421875 C-1.34652344 20.29160156 -1.32976562 19.00898437 -1.3125 17.6875 C-1.30863281 16.41261719 -1.30476563 15.13773438 -1.30078125 13.82421875 C-0.99034634 9.87726062 -0.21594084 6.74471023 1 3 C0.01 2.67 -0.98 2.34 -2 2 C-1.34 1.34 -0.68 0.68 0 0 Z " fill="#BEA084" transform="translate(91,49)"/>
<path d="M0 0 C1.32 0 2.64 0 4 0 C3.75 2.375 3.75 2.375 3 5 C1 6.1875 1 6.1875 -1 7 C-1.33 7.66 -1.66 8.32 -2 9 C-3.77734375 10.03515625 -3.77734375 10.03515625 -5.9375 11.0625 C-6.64777344 11.40410156 -7.35804687 11.74570312 -8.08984375 12.09765625 C-8.72019531 12.39542969 -9.35054687 12.69320312 -10 13 C-10.99 13.495 -10.99 13.495 -12 14 C-12.66 13.34 -13.32 12.68 -14 12 C-13.01 11.67 -12.02 11.34 -11 11 C-11 10.01 -11 9.02 -11 8 C-8.94045353 4.9106803 -8.15316432 4.35735706 -4.9375 2.875 C-2.26904813 1.72576774 -2.26904813 1.72576774 0 0 Z " fill="#C09F83" transform="translate(67,47)"/>
<path d="M0 0 C1.98 0 3.96 0 6 0 C5.72285156 0.52335937 5.44570313 1.04671875 5.16015625 1.5859375 C3.7403676 4.54024521 2.59666493 7.55926827 1.4375 10.625 C-0.90277778 16.80555556 -0.90277778 16.80555556 -2 19 C-2.66 19 -3.32 19 -4 19 C-5.25552169 15.42724029 -4.72908409 13.09371195 -3.6875 9.5 C-3.42324219 8.5615625 -3.15898437 7.623125 -2.88671875 6.65625 C-2.09751939 4.29212856 -1.18208546 2.18866479 0 0 Z " fill="#B6926E" transform="translate(28,82)"/>
<path d="M0 0 C1.32 0 2.64 0 4 0 C5.16307597 4.0707659 4.88851147 6.22297706 3 10 C2.01 11.485 2.01 11.485 1 13 C0.566875 14.19625 0.13375 15.3925 -0.3125 16.625 C-0.869375 17.73875 -1.42625 18.8525 -2 20 C-4.60546875 20.7109375 -4.60546875 20.7109375 -7 21 C-6.566875 20.13117187 -6.13375 19.26234375 -5.6875 18.3671875 C-5.130625 17.21476562 -4.57375 16.06234375 -4 14.875 C-3.443125 13.73804688 -2.88625 12.60109375 -2.3125 11.4296875 C-0.98579244 7.9628743 -0.83022768 5.6607157 -1 2 C-0.67 1.34 -0.34 0.68 0 0 Z " fill="#DAC1A3" transform="translate(69,4)"/>
<path d="M0 0 C0.66 0.33 1.32 0.66 2 1 C1.59007812 1.72445312 1.18015625 2.44890625 0.7578125 3.1953125 C-3.24152329 10.32514933 -3.24152329 10.32514933 -6 18 C-6.66 17.01 -7.32 16.02 -8 15 C-10.05925139 14.27617533 -10.05925139 14.27617533 -12 14 C-11.34 12.68 -10.68 11.36 -10 10 C-9.34 10 -8.68 10 -8 10 C-7.7525 9.443125 -7.505 8.88625 -7.25 8.3125 C-5.43760226 4.95956419 -3.46885508 1.73442754 0 0 Z " fill="#CBAD8A" transform="translate(26,81)"/>
<path d="M0 0 C3.54615991 0.5976674 5.50132351 1.95894574 8.1875 4.3125 C8.88230469 4.90675781 9.57710937 5.50101563 10.29296875 6.11328125 C12.10781237 8.11916104 12.60932477 9.35856894 13 12 C11.68 11.67 10.36 11.34 9 11 C8.855625 11.721875 8.71125 12.44375 8.5625 13.1875 C8.04166667 15.79166667 7.52083333 18.39583333 7 21 C6.67 21 6.34 21 6 21 C5.972807 19.41676312 5.95351694 17.83338938 5.9375 16.25 C5.92589844 15.36828125 5.91429688 14.4865625 5.90234375 13.578125 C5.99173802 11.2181162 6.33087179 9.25501476 7 7 C6.401875 6.773125 5.80375 6.54625 5.1875 6.3125 C2.43648112 4.66188867 1.47515363 2.8027919 0 0 Z " fill="#C6A685" transform="translate(78,36)"/>
<path d="M0 0 C-5.30756034 3.70686754 -10.76094972 7.09531261 -16.375 10.3125 C-16.98166504 10.66183594 -17.58833008 11.01117188 -18.21337891 11.37109375 C-20.7903245 12.83417099 -23.18017123 14.06005708 -26 15 C-24.52440331 10.57320993 -22.09942632 10.08567304 -18 8 C-17.34 8 -16.68 8 -16 8 C-16 7.34 -16 6.68 -16 6 C-13 4 -13 4 -10 4 C-9.67 2.68 -9.34 1.36 -9 0 C-3.375 -1.125 -3.375 -1.125 0 0 Z " fill="#DDC09E" transform="translate(66,60)"/>
<path d="M0 0 C1.32 0 2.64 0 4 0 C3.52653165 4.26121515 1.03860562 6.18373138 -2 9 C-2.66 9.66 -3.32 10.32 -4 11 C-5.32 11 -6.64 11 -8 11 C-7.67 11.66 -7.34 12.32 -7 13 C-7.78375 13.28875 -8.5675 13.5775 -9.375 13.875 C-12.09671632 14.84912254 -12.09671632 14.84912254 -14 17 C-14 16.34 -14 15.68 -14 15 C-14.66 14.67 -15.32 14.34 -16 14 C-15.01 13.67 -14.02 13.34 -13 13 C-13 12.34 -13 11.68 -13 11 C-11.948125 10.4225 -10.89625 9.845 -9.8125 9.25 C-3.58032369 5.81995583 -3.58032369 5.81995583 0 0 Z " fill="#D2BCA4" transform="translate(65,63)"/>
<path d="M0 0 C1.32 0.33 2.64 0.66 4 1 C4 1.66 4 2.32 4 3 C5.32 3.33 6.64 3.66 8 4 C7.67 4.33 7.34 4.66 7 5 C7.66 5.33 8.32 5.66 9 6 C9 6.99 9 7.98 9 9 C9.99 9.33 10.98 9.66 12 10 C11.67 10.66 11.34 11.32 11 12 C10.34 12 9.68 12 9 12 C9.95865509 14.33075929 9.95865509 14.33075929 13 16 C12.01 16.33 11.02 16.66 10 17 C7.49466875 15.37890331 5.8156182 14.27387327 4 12 C3.75 8.9375 3.75 8.9375 4 6 C2.96101255 3.32831798 2.04325521 2.04325521 0 0 Z " fill="#AD7E56" transform="translate(56,124)"/>
<path d="M0 0 C0.33 1.32 0.66 2.64 1 4 C-0.26418246 4.69965443 -1.53665402 5.38434763 -2.8125 6.0625 C-3.52019531 6.44535156 -4.22789063 6.82820313 -4.95703125 7.22265625 C-7 8 -7 8 -10 7 C-11 6 -12 5 -13 4 C-8.92504479 -0.07495521 -5.70163125 -0.21929351 0 0 Z " fill="#C6A580" transform="translate(34,68)"/>
<path d="M0 0 C0.66 0.33 1.32 0.66 2 1 C2.33 2.32 2.66 3.64 3 5 C0.69 6.98 -1.62 8.96 -4 11 C-4.66 10.67 -5.32 10.34 -6 10 C-6.40729228 7.67843403 -6.74438677 5.3431213 -7 3 C-4.69631264 1.93347808 -2.35981813 0.93578995 0 0 Z " fill="#D9BB9F" transform="translate(74,65)"/>
<path d="M0 0 C0.66 0.33 1.32 0.66 2 1 C1.87431641 2.44632812 1.87431641 2.44632812 1.74609375 3.921875 C1.64425781 5.18515625 1.54242188 6.4484375 1.4375 7.75 C1.33308594 9.00296875 1.22867188 10.2559375 1.12109375 11.546875 C1.01861052 14.4693 1.19934139 16.26834122 2 19 C2.12205329 21.67540816 2.04467313 24.31961238 2 27 C1.01 26.67 0.02 26.34 -1 26 C-1.1963696 23.62543835 -1.38231294 21.25079981 -1.5625 18.875 C-1.61857422 18.20984375 -1.67464844 17.5446875 -1.73242188 16.859375 C-2.03687694 12.71878616 -1.84956369 9.05902652 -1 5 C-0.814375 4.05125 -0.62875 3.1025 -0.4375 2.125 C-0.293125 1.42375 -0.14875 0.7225 0 0 Z " fill="#BA9F83" transform="translate(45,96)"/>
<path d="M0 0 C-1.39559727 3.3726934 -2.8921588 5.08045102 -6 7 C-8.125 7.625 -8.125 7.625 -10 8 C-10.99 8.495 -10.99 8.495 -12 9 C-12.66 7.68 -13.32 6.36 -14 5 C-12.23628182 3.96692229 -10.46374967 2.94887951 -8.6875 1.9375 C-7.70136719 1.36902344 -6.71523438 0.80054687 -5.69921875 0.21484375 C-3 -1 -3 -1 0 0 Z " fill="#C39F7D" transform="translate(62,65)"/>
<path d="M0 0 C0.99 0 1.98 0 3 0 C3 0.66 3 1.32 3 2 C3.66 2 4.32 2 5 2 C4.67 3.98 4.34 5.96 4 8 C2.35 8 0.7 8 -1 8 C-1 9.65 -1 11.3 -1 13 C-1.99 13.495 -1.99 13.495 -3 14 C-4.25955231 10.22134307 -3.48087189 8.96588214 -2.0625 5.3125 C-1.68222656 4.31863281 -1.30195312 3.32476562 -0.91015625 2.30078125 C-0.60980469 1.54152344 -0.30945312 0.78226562 0 0 Z " fill="#D9C4A7" transform="translate(35,97)"/>
<path d="M0 0 C0.33 0 0.66 0 1 0 C1.66 2.31 2.32 4.62 3 7 C3.33 5.35 3.66 3.7 4 2 C5.32 2.33 6.64 2.66 8 3 C7.67 4.65 7.34 6.3 7 8 C6.34 8 5.68 8 5 8 C5 9.65 5 11.3 5 13 C4.01 13 3.02 13 2 13 C0 11 0 11 -0.1953125 8.3984375 C-0.17210937 7.40070313 -0.14890625 6.40296875 -0.125 5.375 C-0.10695313 4.37210937 -0.08890625 3.36921875 -0.0703125 2.3359375 C-0.04710937 1.56507812 -0.02390625 0.79421875 0 0 Z " fill="#BB9B7C" transform="translate(7,104)"/>
<path d="M0 0 C1.65322266 0.01740234 1.65322266 0.01740234 3.33984375 0.03515625 C4.44457031 0.04417969 5.54929687 0.05320313 6.6875 0.0625 C7.54214844 0.07410156 8.39679688 0.08570313 9.27734375 0.09765625 C9.27734375 1.08765625 9.27734375 2.07765625 9.27734375 3.09765625 C1.13085743 3.86065569 -6.60877581 4.31286876 -14.72265625 3.09765625 C-14.72265625 2.76765625 -14.72265625 2.43765625 -14.72265625 2.09765625 C-13.94019531 2.03707031 -13.15773438 1.97648438 -12.3515625 1.9140625 C-11.33964844 1.83027344 -10.32773438 1.74648437 -9.28515625 1.66015625 C-8.27582031 1.57894531 -7.26648438 1.49773437 -6.2265625 1.4140625 C-3.24407332 1.03718009 -3.07714724 0.11037114 0 0 Z " fill="#AA7F61" transform="translate(99.72265625,159.90234375)"/>
<path d="M0 0 C1.32 0.99 2.64 1.98 4 3 C1.69 5.64 -0.62 8.28 -3 11 C-4.32 10.34 -5.64 9.68 -7 9 C-5.44499019 5.18315774 -2.96404505 2.80804268 0 0 Z " fill="#BD9E78" transform="translate(59,80)"/>
<path d="M0 0 C4.3890815 0.51035831 7.33708062 1.52214277 11 4 C10.01 4.495 10.01 4.495 9 5 C9.66 6.65 10.32 8.3 11 10 C10.01 10.33 9.02 10.66 8 11 C7.67 11.66 7.34 12.32 7 13 C6.34 12.01 5.68 11.02 5 10 C5.66 9.01 6.32 8.02 7 7 C6.4946875 6.57847656 5.989375 6.15695313 5.46875 5.72265625 C4.8190625 5.17480469 4.169375 4.62695312 3.5 4.0625 C2.8503125 3.51722656 2.200625 2.97195312 1.53125 2.41015625 C1.0259375 1.94480469 0.520625 1.47945312 0 1 C0 0.67 0 0.34 0 0 Z " fill="#C8AD8B" transform="translate(29,27)"/>
<path d="M0 0 C0.33 0 0.66 0 1 0 C1 1.98 1 3.96 1 6 C1.66 6 2.32 6 3 6 C3.66 4.35 4.32 2.7 5 1 C6 4 6 4 4.85546875 6.48046875 C4.02982422 7.82044922 4.02982422 7.82044922 3.1875 9.1875 C2.64480469 10.08855469 2.10210937 10.98960938 1.54296875 11.91796875 C1.03378906 12.60503906 0.52460937 13.29210937 0 14 C-0.66 14 -1.32 14 -2 14 C-1.85923685 12.0412957 -1.7122324 10.08303907 -1.5625 8.125 C-1.48128906 7.03445312 -1.40007812 5.94390625 -1.31640625 4.8203125 C-1 2 -1 2 0 0 Z " fill="#A58871" transform="translate(4,85)"/>
<path d="M0 0 C5.28 0.66 10.56 1.32 16 2 C16 2.66 16 3.32 16 4 C14.7934375 3.9690625 14.7934375 3.9690625 13.5625 3.9375 C11.06645115 3.70366379 11.06645115 3.70366379 10 5 C7.32941149 5.14115161 4.67567762 5.04247107 2 5 C0 1.125 0 1.125 0 0 Z " fill="#B4906D" transform="translate(86,157)"/>
<path d="M0 0 C0.99 0.33 1.98 0.66 3 1 C2.38125 1.7425 1.7625 2.485 1.125 3.25 C-0.62754142 5.51799478 -1.8341917 7.41856734 -3 10 C-3.66666667 11.33333333 -4.33333333 12.66666667 -5 14 C-5.99 13.01 -6.98 12.02 -8 11 C-6.52670958 5.99081256 -3.72484762 3.48192278 0 0 Z " fill="#905F47" transform="translate(64,102)"/>
<path d="M0 0 C0.66 0 1.32 0 2 0 C2.0825 1.093125 2.165 2.18625 2.25 3.3125 C2.63689209 7.03276664 2.63689209 7.03276664 5.0625 8.9375 C5.701875 9.288125 6.34125 9.63875 7 10 C6.67 10.99 6.34 11.98 6 13 C3.6875 12.5625 3.6875 12.5625 1 11 C-0.36075884 8.09244107 -1.21362959 5.10712212 -2 2 C-1.34 2 -0.68 2 0 2 C0 1.34 0 0.68 0 0 Z " fill="#AE9269" transform="translate(24,108)"/>
<path d="M0 0 C-2.40689803 2.72675159 -4.92471023 4.11966596 -8.1875 5.6875 C-9.08855469 6.12449219 -9.98960938 6.56148437 -10.91796875 7.01171875 C-11.94857422 7.50091797 -11.94857422 7.50091797 -13 8 C-13.66 7.34 -14.32 6.68 -15 6 C-13.625 4.5 -13.625 4.5 -12 3 C-11.34 3 -10.68 3 -10 3 C-9.67 2.34 -9.34 1.68 -9 1 C-6.04335481 -0.4783226 -3.25770263 -0.06032783 0 0 Z " fill="#D7BD90" transform="translate(58,43)"/>
<path d="M0 0 C3.96 0 7.92 0 12 0 C11.67 1.32 11.34 2.64 11 4 C9.37536158 4.05395478 7.75021459 4.09277195 6.125 4.125 C5.22007813 4.14820313 4.31515625 4.17140625 3.3828125 4.1953125 C1 4 1 4 -1 2 C-0.67 1.34 -0.34 0.68 0 0 Z " fill="#BC9D6E" transform="translate(97,140)"/>
<path d="M0 0 C3.02481775 0.58815901 6.01642221 1.23004444 9 2 C9.7425 2.185625 10.485 2.37125 11.25 2.5625 C12.11625 2.7790625 12.11625 2.7790625 13 3 C11.25 4.5625 11.25 4.5625 9 6 C6.9375 5.75 6.9375 5.75 5 5 C4.01 4.67 3.02 4.34 2 4 C0.8125 1.9375 0.8125 1.9375 0 0 Z M5 7 C2.29120665 8.35439668 -0.00933268 8.06501451 -3 8 C0.06748874 6.13759612 1.59745511 5.7848054 5 7 Z " fill="#D4B292" transform="translate(41,59)"/>
<path d="M0 0 C0.33 0 0.66 0 1 0 C1.33 2.31 1.66 4.62 2 7 C-1.3 7 -4.6 7 -8 7 C-8 6.01 -8 5.02 -8 4 C-4.77208445 1.8480563 -3.71599191 1.79913557 0 2 C0 1.34 0 0.68 0 0 Z " fill="#D1B897" transform="translate(74,51)"/>
<path d="M0 0 C2.64 0 5.28 0 8 0 C8.6875 1.8125 8.6875 1.8125 9 4 C7.5625 5.75 7.5625 5.75 6 7 C5.34 6.01 4.68 5.02 4 4 C1.43717258 3.27034634 1.43717258 3.27034634 -1 3 C-0.67 2.01 -0.34 1.02 0 0 Z " fill="#BC9977" transform="translate(11,74)"/>
<path d="M0 0 C0.66 0.33 1.32 0.66 2 1 C2.34153937 2.66500443 2.67449498 4.33178677 3 6 C3.66 6.66 4.32 7.32 5 8 C1.97819938 8.25181672 0.4185252 8.26307298 -2.1875 6.625 C-3.49317142 5.45439804 -4.76002282 4.23997718 -6 3 C-4.03533587 1.93224776 -2.03144641 0.93446535 0 0 Z " fill="#A78360" transform="translate(97,143)"/>
<path d="M0 0 C2.0625 0.4375 2.0625 0.4375 4 1 C4.6875 2.8125 4.6875 2.8125 5 5 C3.5625 6.75 3.5625 6.75 2 8 C0.68 7.34 -0.64 6.68 -2 6 C-1.125 1.125 -1.125 1.125 0 0 Z " fill="#BEA289" transform="translate(43,2)"/>
<path d="M0 0 C0.99 0 1.98 0 3 0 C3.125 5.75 3.125 5.75 2 8 C-0.0625 8.625 -0.0625 8.625 -2 9 C-3 6 -3 6 -1.5625 2.8125 C-1.046875 1.884375 -0.53125 0.95625 0 0 Z " fill="#C8A47C" transform="translate(42,95)"/>
<path d="M0 0 C1.98 0 3.96 0 6 0 C5.690625 0.598125 5.38125 1.19625 5.0625 1.8125 C3.89790296 4.08956772 3.89790296 4.08956772 3 7 C2.01 7.33 1.02 7.66 0 8 C-0.99 7.34 -1.98 6.68 -3 6 C-2.01 4.02 -1.02 2.04 0 0 Z " fill="#BFA07B" transform="translate(28,82)"/>
<path d="M0 0 C3.63 1.65 7.26 3.3 11 5 C11 5.66 11 6.32 11 7 C8.5332355 7.88336837 7.36140628 8.1312406 4.859375 7.22265625 C4.16328125 6.83980469 3.4671875 6.45695313 2.75 6.0625 C2.04359375 5.68222656 1.3371875 5.30195313 0.609375 4.91015625 C0.07828125 4.60980469 -0.4528125 4.30945313 -1 4 C-0.67 2.68 -0.34 1.36 0 0 Z " fill="#B79B7D" transform="translate(66,144)"/>
<path d="M0 0 C0.99 0.33 1.98 0.66 3 1 C3 1.99 3 2.98 3 4 C3.66 4.66 4.32 5.32 5 6 C4.01 6.99 3.02 7.98 2 9 C0.0625 8.25 0.0625 8.25 -2 7 C-2.75 4.875 -2.75 4.875 -3 3 C-2.01 3 -1.02 3 0 3 C0 2.01 0 1.02 0 0 Z " fill="#B18A67" transform="translate(43,37)"/>
<path d="M0 0 C0.33 0.66 0.66 1.32 1 2 C1.99 2.33 2.98 2.66 4 3 C3.67 6.3 3.34 9.6 3 13 C2.01 12.34 1.02 11.68 0 11 C-0.29296875 8.3984375 -0.29296875 8.3984375 -0.1875 5.375 C-0.16042969 4.37210937 -0.13335938 3.36921875 -0.10546875 2.3359375 C-0.07066406 1.56507812 -0.03585938 0.79421875 0 0 Z " fill="#CFAD8C" transform="translate(8,99)"/>
<path d="M0 0 C0.33 0.99 0.66 1.98 1 3 C1.66 3 2.32 3 3 3 C3.33 2.01 3.66 1.02 4 0 C4.99 0.99 5.98 1.98 7 3 C5.68 4.65 4.36 6.3 3 8 C1 7 1 7 0 5 C-0.99 5 -1.98 5 -3 5 C-2.01 3.35 -1.02 1.7 0 0 Z " fill="#DDC5AA" transform="translate(74,61)"/>
<path d="M0 0 C0.33 0.66 0.66 1.32 1 2 C0.01 2.66 -0.98 3.32 -2 4 C-1.67 4.66 -1.34 5.32 -1 6 C-1.78375 6.28875 -2.5675 6.5775 -3.375 6.875 C-6.09671632 7.84912254 -6.09671632 7.84912254 -8 10 C-8 9.34 -8 8.68 -8 8 C-8.66 7.67 -9.32 7.34 -10 7 C-9.01 6.67 -8.02 6.34 -7 6 C-7 5.34 -7 4.68 -7 4 C-4.69 2.68 -2.38 1.36 0 0 Z " fill="#D7B999" transform="translate(59,70)"/>
<path d="M0 0 C0.80824219 0.28746094 1.61648437 0.57492188 2.44921875 0.87109375 C3.06410156 1.09925781 3.67898437 1.32742187 4.3125 1.5625 C3.9825 2.2225 3.6525 2.8825 3.3125 3.5625 C2.6525 3.2325 1.9925 2.9025 1.3125 2.5625 C1.3125 3.2225 1.3125 3.8825 1.3125 4.5625 C-5.4375 2.9375 -5.4375 2.9375 -7.6875 -0.4375 C-4.20878379 -1.59707207 -3.34530355 -1.21206651 0 0 Z " fill="#C4AA8C" transform="translate(81.6875,151.4375)"/>
<path d="M0 0 C1.32 0 2.64 0 4 0 C4.33 1.65 4.66 3.3 5 5 C3.35 5.66 1.7 6.32 0 7 C-1.125 2.25 -1.125 2.25 0 0 Z " fill="#BFA78E" transform="translate(69,4)"/>
<path d="M0 0 C0.33 0 0.66 0 1 0 C1.17015625 0.556875 1.3403125 1.11375 1.515625 1.6875 C3.23315937 7.09590609 5.35342255 11.98062896 8 17 C5.525 16.01 5.525 16.01 3 15 C3 13.68 3 12.36 3 11 C2.34 10.67 1.68 10.34 1 10 C0.5859375 7.71484375 0.5859375 7.71484375 0.375 4.9375 C0.30023437 4.01839844 0.22546875 3.09929687 0.1484375 2.15234375 C0.09945313 1.44207031 0.05046875 0.73179688 0 0 Z " fill="#A28971" transform="translate(20,115)"/>
<path d="M0 0 C1.32 0 2.64 0 4 0 C3.67 2.97 3.34 5.94 3 9 C1.68 8.34 0.36 7.68 -1 7 C-0.67 4.69 -0.34 2.38 0 0 Z " fill="#C49E76" transform="translate(15,97)"/>
<path d="M0 0 C1.32 0.66 2.64 1.32 4 2 C2.68 3.32 1.36 4.64 0 6 C-5.875 3.25 -5.875 3.25 -7 1 C-6.401875 1.20625 -5.80375 1.4125 -5.1875 1.625 C-2.71549154 2.30671915 -2.71549154 2.30671915 0 0 Z " fill="#B29456" transform="translate(78,142)"/>
<path d="M0 0 C1.32 0.66 2.64 1.32 4 2 C4 2.99 4 3.98 4 5 C2.02 5.99 2.02 5.99 0 7 C-0.99 6.01 -1.98 5.02 -3 4 C-2.01 2.68 -1.02 1.36 0 0 Z " fill="#C4A185" transform="translate(24,21)"/>
<path d="M0 0 C0.99 0 1.98 0 3 0 C3.33 2.97 3.66 5.94 4 9 C3.01 9 2.02 9 1 9 C0.45627049 5.94152152 0 3.11227195 0 0 Z " fill="#F3DFC1" transform="translate(44,11)"/>
<path d="M0 0 C2.97 0 5.94 0 9 0 C9 1.32 9 2.64 9 4 C6.03 3.67 3.06 3.34 0 3 C0 2.01 0 1.02 0 0 Z " fill="#AB8E73" transform="translate(88,140)"/>
<path d="M0 0 C3.84800954 0.54971565 5.35309439 2.27037858 8 5 C10.13309192 6.23512079 10.13309192 6.23512079 12 7 C10.02 7.99 10.02 7.99 8 9 C8 8.34 8 7.68 8 7 C5.525 6.01 5.525 6.01 3 5 C3 4.01 3 3.02 3 2 C2.01 1.67 1.02 1.34 0 1 C0 0.67 0 0.34 0 0 Z " fill="#9A7F67" transform="translate(62,128)"/>
<path d="M0 0 C2 2 2 2 2.125 4.625 C2.08375 5.40875 2.0425 6.1925 2 7 C0.33333333 7 -1.33333333 7 -3 7 C-2.625 4.0625 -2.625 4.0625 -2 1 C-1.34 0.67 -0.68 0.34 0 0 Z " fill="#946E4E" transform="translate(57,112)"/>
<path d="M0 0 C0.66 0.33 1.32 0.66 2 1 C0.35 4.3 -1.3 7.6 -3 11 C-3.99 10.67 -4.98 10.34 -6 10 C-6 9.01 -6 8.02 -6 7 C-5.01 7 -4.02 7 -3 7 C-3.33 5.68 -3.66 4.36 -4 3 C-3.01 2.67 -2.02 2.34 -1 2 C-0.67 1.34 -0.34 0.68 0 0 Z " fill="#C1A887" transform="translate(51,83)"/>
<path d="M0 0 C0.66 0.33 1.32 0.66 2 1 C1.01 3.31 0.02 5.62 -1 8 C-1.99 7.67 -2.98 7.34 -4 7 C-3.67 5.02 -3.34 3.04 -3 1 C-2.01 0.67 -1.02 0.34 0 0 Z " fill="#DBC2A4" transform="translate(13,94)"/>
<path d="M0 0 C2 1 2 1 3 3 C1.35 3 -0.3 3 -2 3 C-2 4.65 -2 6.3 -2 8 C-2.99 8.495 -2.99 8.495 -4 9 C-5 6 -5 6 -4.25 3.375 C-3 1 -3 1 0 0 Z " fill="#CFB796" transform="translate(36,102)"/>
<path d="M0 0 C0.33 1.32 0.66 2.64 1 4 C-0.98 5.32 -2.96 6.64 -5 8 C-5 6.02 -5 4.04 -5 2 C-3.35 2 -1.7 2 0 2 C0 1.34 0 0.68 0 0 Z " fill="#DBC1A3" transform="translate(50,21)"/>
<path d="M0 0 C0.33 0.66 0.66 1.32 1 2 C1.66 2 2.32 2 3 2 C3 2.66 3 3.32 3 4 C3.66 4.33 4.32 4.66 5 5 C2.21176345 6.0326802 1.1322726 6.04509293 -1.75 5.0625 C-2.4925 4.711875 -3.235 4.36125 -4 4 C-2.68 2.68 -1.36 1.36 0 0 Z " fill="#9D8772" transform="translate(28,132)"/>
<path d="M0 0 C2.31 0.33 4.62 0.66 7 1 C5.68 2.32 4.36 3.64 3 5 C2.01 4.34 1.02 3.68 0 3 C0 2.01 0 1.02 0 0 Z " fill="#9C7555" transform="translate(46,55)"/>
<path d="M0 0 C1.875 0.875 1.875 0.875 3.875 3.875 C-2.75 5.125 -2.75 5.125 -6.125 2.875 C-2.7254415 -0.16032009 -2.7254415 -0.16032009 0 0 Z " fill="#C3AB8C" transform="translate(60.125,40.125)"/>
<path d="M0 0 C0.99 0.33 1.98 0.66 3 1 C2.360625 1.78375 1.72125 2.5675 1.0625 3.375 C-0.98142313 5.79539281 -0.98142313 5.79539281 -2 8 C-2.66 8 -3.32 8 -4 8 C-3.50168276 4.31245243 -2.89932357 2.39509338 0 0 Z " fill="#765B44" transform="translate(64,102)"/>
<path d="M0 0 C-0.33 0.99 -0.66 1.98 -1 3 C-3.64 3 -6.28 3 -9 3 C-5.83583464 -0.30799106 -4.50236011 -1.35070803 0 0 Z " fill="#D3B89C" transform="translate(25,68)"/>
<path d="M0 0 C-1.65 0.33 -3.3 0.66 -5 1 C-4.34 2.65 -3.68 4.3 -3 6 C-3.99 6.495 -3.99 6.495 -5 7 C-5.66 6.67 -6.32 6.34 -7 6 C-7 4.02 -7 2.04 -7 0 C-3.86650268 -1.04449911 -3.01031744 -0.93423645 0 0 Z " fill="#B69578" transform="translate(51,54)"/>
<path d="M0 0 C1.32 0 2.64 0 4 0 C3.8125 2.375 3.8125 2.375 3 5 C0.4375 6.3125 0.4375 6.3125 -2 7 C-2.33 6.34 -2.66 5.68 -3 5 C-2.01 4.34 -1.02 3.68 0 3 C0 2.01 0 1.02 0 0 Z " fill="#D1B599" transform="translate(67,47)"/>
<path d="M0 0 C0.66 0 1.32 0 2 0 C2.33 1.65 2.66 3.3 3 5 C1.35 5.33 -0.3 5.66 -2 6 C-2.33 5.01 -2.66 4.02 -3 3 C-2.01 3 -1.02 3 0 3 C0 2.01 0 1.02 0 0 Z " fill="#DDC8A6" transform="translate(81,44)"/>
<path d="M0 0 C0 1.98 0 3.96 0 6 C-1.98 6.99 -1.98 6.99 -4 8 C-4.36780384 3.46375267 -4.36780384 3.46375267 -2.5625 1.1875 C-1 0 -1 0 0 0 Z " fill="#B98E69" transform="translate(70,26)"/>
<path d="M0 0 C0 0.33 0 0.66 0 1 C-1.95689659 1.22142255 -3.91561952 1.4267568 -5.875 1.625 C-7.51082031 1.79902344 -7.51082031 1.79902344 -9.1796875 1.9765625 C-10.57574219 1.98816406 -10.57574219 1.98816406 -12 2 C-12.66 1.34 -13.32 0.68 -14 0 C-9.20699867 -1.39151652 -4.84864218 -0.68662689 0 0 Z " fill="#C9B095" transform="translate(109,156)"/>
<path d="M0 0 C0.33 0.99 0.66 1.98 1 3 C1.66 3.33 2.32 3.66 3 4 C2.34 5.32 1.68 6.64 1 8 C-2 4.375 -2 4.375 -2 1 C-1.34 0.67 -0.68 0.34 0 0 Z " fill="#A07E5F" transform="translate(58,126)"/>
<path d="M0 0 C1.4606285 2.64738916 2 3.89448334 2 7 C1.01 7.33 0.02 7.66 -1 8 C-1.66 7.67 -2.32 7.34 -3 7 C-3 6.01 -3 5.02 -3 4 C-2.01 4 -1.02 4 0 4 C0 2.68 0 1.36 0 0 Z " fill="#ECD1AF" transform="translate(48,16)"/>
<path d="M0 0 C0.99 0.33 1.98 0.66 3 1 C2.34 2.98 1.68 4.96 1 7 C0.34 7 -0.32 7 -1 7 C-1.04254356 5.00045254 -1.04080783 2.99958364 -1 1 C-0.67 0.67 -0.34 0.34 0 0 Z " fill="#B38967" transform="translate(6,84)"/>
<path d="M0 0 C0.99 0.33 1.98 0.66 3 1 C3.33 1.99 3.66 2.98 4 4 C2.35 4.33 0.7 4.66 -1 5 C-1.33 3.68 -1.66 2.36 -2 1 C-1.34 0.67 -0.68 0.34 0 0 Z " fill="#BB916B" transform="translate(13,77)"/>
<path d="M0 0 C0 0.99 0 1.98 0 3 C-1.65 3.66 -3.3 4.32 -5 5 C-5.33 3.68 -5.66 2.36 -6 1 C-4.02 0.67 -2.04 0.34 0 0 Z " fill="#BEA182" transform="translate(44,31)"/>
<path d="M0 0 C0 0.99 0 1.98 0 3 C-2.64 3 -5.28 3 -8 3 C-8.33 2.34 -8.66 1.68 -9 1 C-5.94152152 0.45627049 -3.11227195 0 0 0 Z " fill="#BB9E87" transform="translate(109,140)"/>
<path d="M0 0 C0.66 1.32 1.32 2.64 2 4 C0.35 4.33 -1.3 4.66 -3 5 C-3 3.68 -3 2.36 -3 1 C-2.01 0.67 -1.02 0.34 0 0 Z " fill="#9F7454" transform="translate(56,118)"/>
<path d="M0 0 C0 0.66 0 1.32 0 2 C-1.32 2.33 -2.64 2.66 -4 3 C-4 3.66 -4 4.32 -4 5 C-5.32 4.34 -6.64 3.68 -8 3 C-2.25 0 -2.25 0 0 0 Z " fill="#C8AB8A" transform="translate(20,70)"/>
<path d="M0 0 C0.66 0.99 1.32 1.98 2 3 C1.01 3.66 0.02 4.32 -1 5 C-1 5.99 -1 6.98 -1 8 C-1.66 8 -2.32 8 -3 8 C-3.1875 5.125 -3.1875 5.125 -3 2 C-2.01 1.34 -1.02 0.68 0 0 Z " fill="#C5AA8B" transform="translate(66,48)"/>
<path d="M0 0 C0.94875 0.639375 1.8975 1.27875 2.875 1.9375 C5.75287827 3.92620563 5.75287827 3.92620563 8 5 C6.02 5.99 6.02 5.99 4 7 C2 5.1875 2 5.1875 0 3 C0 2.01 0 1.02 0 0 Z " fill="#C2A787" transform="translate(55,21)"/>
<path d="M0 0 C0 3 0 3 0 3 Z " fill="#101012" transform="translate(108,61)"/>
<path d="" fill="#212323" transform="translate(0,0)"/>
<path d="" fill="#FFFF00" transform="translate(0,0)"/>
<path d="" fill="#FFFF00" transform="translate(0,0)"/>
<path d="" fill="#FF0000" transform="translate(0,0)"/>
</svg>
